<?xml version="1.0" encoding="utf-8"?>
<!-- Generator: Adobe Illustrator 25.0.1, SVG Export Plug-In . SVG Version: 6.00 Build 0)  -->
<svg version="1.1" id="Layer_1" xmlns="http://www.w3.org/2000/svg" xmlns:xlink="http://www.w3.org/1999/xlink" x="0px" y="0px"
	 width="28.35px" height="28.35px" viewBox="0 0 28.35 28.35" style="enable-background:new 0 0 28.35 28.35;" xml:space="preserve"
	>
<style type="text/css">
	.st0{fill:#FFC639;}
</style>
<g>
	<path class="st0" d="M22.64,27.53c-0.07-0.02-0.13-0.04-0.18-0.07l-8.29-4.52l-8.29,4.52c-0.13,0.07-0.27,0.1-0.42,0.09
		c-0.15-0.01-0.28-0.06-0.41-0.14c-0.12-0.09-0.21-0.21-0.27-0.35c-0.06-0.14-0.07-0.28-0.05-0.44l1.51-9.04l-6.01-6.01
		c-0.1-0.1-0.17-0.23-0.21-0.37c-0.04-0.14-0.03-0.29,0.02-0.43c0.04-0.14,0.12-0.26,0.23-0.35c0.11-0.09,0.24-0.15,0.38-0.18
		l9.05-1.51l3.75-7.5c0.07-0.14,0.17-0.25,0.29-0.33s0.26-0.12,0.42-0.12s0.29,0.04,0.42,0.12c0.12,0.08,0.22,0.19,0.29,0.33
		l3.75,7.5l9.05,1.51c0.14,0.03,0.27,0.09,0.38,0.18c0.11,0.09,0.19,0.21,0.23,0.35c0.05,0.14,0.06,0.29,0.02,0.43
		c-0.04,0.14-0.11,0.27-0.21,0.37l-6.01,6.01l1.51,9.04c0.02,0.15,0,0.3-0.05,0.44c-0.06,0.14-0.15,0.25-0.27,0.35
		c-0.07,0.04-0.15,0.07-0.22,0.1s-0.16,0.04-0.24,0.04C22.77,27.55,22.7,27.55,22.64,27.53z"/>
</g>
</svg>
