<?xml version="1.0" encoding="utf-8"?>
<!-- Generator: Adobe Illustrator 25.0.1, SVG Export Plug-In . SVG Version: 6.00 Build 0)  -->
<svg version="1.1" id="Layer_1" xmlns="http://www.w3.org/2000/svg" xmlns:xlink="http://www.w3.org/1999/xlink" x="0px" y="0px"
	 width="28.35px" height="28.35px" viewBox="0 0 28.35 28.35" style="enable-background:new 0 0 28.35 28.35;" xml:space="preserve"
	>
<style type="text/css">
	.st0{fill:#FFFFFF;}
</style>
<path class="st0" d="M28.31,11.51c0.06-0.27,0.05-0.53-0.04-0.76c-0.08-0.28-0.23-0.5-0.43-0.65c-0.19-0.16-0.41-0.27-0.69-0.33
	l-8.28-1.38l-3.42-6.83c-0.13-0.25-0.3-0.45-0.52-0.58c-0.44-0.28-1.05-0.29-1.51-0.01c-0.22,0.14-0.4,0.34-0.53,0.59L9.47,8.39
	L1.16,9.77c-0.25,0.05-0.47,0.16-0.65,0.31c-0.21,0.17-0.37,0.4-0.43,0.63c-0.1,0.26-0.11,0.54-0.04,0.81
	c0.07,0.26,0.2,0.49,0.37,0.66l5.48,5.48l-1.38,8.29c-0.03,0.26,0,0.51,0.1,0.76c0.1,0.25,0.27,0.47,0.51,0.63
	c0.21,0.14,0.45,0.23,0.72,0.25c0.03,0,0.07,0,0.1,0c0.22,0,0.44-0.05,0.67-0.17l7.57-4.13l7.59,4.14c0.1,0.05,0.2,0.09,0.31,0.12
	c0.26,0.06,0.59,0.04,0.76-0.02c0.13-0.04,0.26-0.1,0.42-0.2c0.22-0.16,0.39-0.38,0.49-0.62c0.1-0.25,0.13-0.51,0.09-0.78
	l-1.38-8.27l5.48-5.48C28.11,12.01,28.23,11.79,28.31,11.51z M13.78,20.3c-0.08,0.03-0.16,0.06-0.3,0.12l-5.66,3.09l1.01-6.1
	c0.04-0.22,0.02-0.46-0.06-0.69c-0.07-0.21-0.19-0.4-0.35-0.57L4.4,12.13l6.25-1.04c0.24-0.04,0.46-0.13,0.64-0.28
	c0.16-0.13,0.3-0.29,0.41-0.5l2.47-4.93l2.48,4.96c0.1,0.18,0.23,0.33,0.4,0.48c0.19,0.14,0.4,0.24,0.63,0.28l6.26,1.04l-4.04,4.04
	c-0.15,0.15-0.26,0.34-0.35,0.58c-0.07,0.23-0.09,0.46-0.05,0.66l1.02,6.11l-5.71-3.12c-0.08-0.03-0.16-0.07-0.25-0.1l-0.05-0.02
	c-0.13-0.03-0.24-0.05-0.35-0.05C14.06,20.24,13.95,20.25,13.78,20.3z M14.36,20.94L14.36,20.94L14.36,20.94L14.36,20.94z
	 M22.23,26.89L22.23,26.89L22.23,26.89L22.23,26.89z M22.27,26.9L22.27,26.9L22.27,26.9L22.27,26.9z"/>
</svg>
